<?xml version="1.0" encoding="UTF-8"?>
<svg width="1024px" height="280px" viewBox="0 0 1024 280" version="1.1" xmlns="http://www.w3.org/2000/svg" xmlns:xlink="http://www.w3.org/1999/xlink">
    <title>plogo</title>
    <g id="Page-1" stroke="none" stroke-width="1" fill="none" fill-rule="evenodd">
        <g id="Desktop" fill-rule="nonzero">
            <g id="plogo">
                <g id="Group">
                    <circle id="Oval" fill="#1E40AF" cx="139.939906" cy="139.939906" r="139.939906"></circle>
                    <g id="Shape" transform="translate(52.150938, 72.302285)" fill="#FFFFFF">
                        <path d="M147.968025,53.5139531 C140.539548,53.5139531 134.347674,58.8470627 132.979528,65.8816085 L121.663754,58.1247397 C120.922073,57.6134924 119.890016,57.8047437 119.375737,58.5534222 C118.861224,59.305366 119.04921,60.3311255 119.804186,60.8456378 L131.416633,68.8070522 L119.804186,76.7684669 C120.33349,76.5395769 120.944061,76.6050499 121.4128,76.9409621 C121.881539,77.2768746 122.13977,77.8340096 122.093136,78.4087957 L133.408911,70.6519269 C134.777056,77.6899711 140.969164,83.0163172 148.397407,83.0163172 C156.831352,83.0163172 163.692606,76.1594949 163.692606,67.7264829 C163.692606,59.2997684 156.831352,52.436649 148.397407,52.436649 L147.968025,53.5139531 Z M147.968025,80.8022346 C141.357264,80.8022346 135.97984,75.4229446 135.97984,68.8103177 C135.97984,62.1944253 141.357264,56.8121033 147.968025,56.8121033 C154.585317,56.8121033 159.966239,62.1944253 159.966239,68.8103177 C159.966239,75.4229446 154.585317,80.8022346 147.968025,80.8022346 L147.968025,80.8022346 Z M147.969191,107.028139 C140.541414,107.028139 134.350006,112.357284 132.981627,119.39113 L121.663754,111.638459 C120.918574,111.123947 119.893281,111.311933 119.375737,112.066909 C118.861224,112.818852 119.04921,113.844379 119.804186,114.355626 L132.78058,123.242743 C133.271769,131.236343 139.858974,137.607574 147.969191,137.607574 C156.402436,137.607574 163.263223,130.745154 163.263223,122.30981 C163.263223,113.884028 156.402436,107.028139 147.969191,107.028139 Z M147.969191,134.313155 C141.358897,134.313155 135.981939,128.9313 135.981939,122.312842 C135.981939,115.701148 141.358897,110.322324 147.969191,110.322324 C154.586016,110.322324 159.966472,115.701148 159.966472,122.312842 C159.966472,128.9313 154.585783,134.313155 147.968958,134.313155 L147.969191,134.313155 Z M43.8884198,58.5524891 C43.3706421,57.8038109 42.345349,57.6125595 41.5969039,58.1238066 L30.2811298,65.8757778 C28.9094854,58.8426314 22.7173778,53.5139531 15.2889012,53.5139531 C6.85798832,53.5139531 -9.11471766e-16,60.3724078 -9.11471766e-16,68.803787 C-9.11471766e-16,77.2351665 6.85798832,84.0936212 15.2889012,84.0936212 C22.7173778,84.0936212 28.9094854,78.7649428 30.2811298,71.7317962 L41.5969039,79.4837674 C41.6108218,78.595242 42.3375163,77.8835674 43.2261385,77.8882069 C44.1147609,77.8928465 44.8339844,78.6120701 44.8386689,79.5006925 C44.8432636,80.3893149 44.1315889,81.1160091 43.2430635,81.1299273 C43.7573428,80.3782168 43.5660915,79.3526904 42.8143809,78.8416766 L31.8440253,68.803787 L43.456705,60.8440053 C44.2081823,60.329726 44.3994337,59.3041997 43.8884198,58.5524891 L43.8884198,58.5524891 Z M15.2889012,80.7961706 C8.67814002,80.7961706 3.29721742,75.4150147 3.29721742,68.803787 C3.29721742,62.1925594 8.67487477,56.8114036 15.2889012,56.8114036 C21.9029276,56.8114036 27.2805849,62.1892942 27.2805849,68.803787 C27.2773197,75.4150147 21.8998956,80.7961706 15.2889012,80.7961706 Z M53.5610661,53.0139011 L65.2234247,45.2616967 C66.6370509,52.294843 73.0152786,57.6232882 80.6713908,57.6232882 C88.3307682,57.6232882 94.7122613,52.294843 96.1258876,45.2584315 L107.788246,53.0136679 C108.328414,53.0136679 108.858786,52.7631754 109.188345,52.2981085 C109.718251,51.546398 109.524667,50.5208716 108.746601,50.0065923 L96.7782407,42.0468106 L108.746601,34.0870286 C109.524667,33.5725164 109.718251,32.5472233 109.188345,31.7952795 C108.658206,31.043569 107.601426,30.8555831 106.829891,31.366597 L95.1675324,39.1220666 C93.7574047,32.0854216 87.3724132,26.7569764 79.7130356,26.7569764 C71.3569906,26.7569764 64.5640745,33.1242422 64.0579583,41.1136446 L50.6829686,50.0065923 C49.908168,50.5208716 49.7110859,51.546398 50.241225,52.2981085 C50.5707834,52.7599102 51.1041877,53.0136679 51.6445891,53.0136679 L53.5610661,53.0139011 Z M81.6295126,30.0511618 C88.4459854,30.0511618 93.991804,35.4323178 93.991804,42.0468106 C93.991804,48.657805 88.4459854,54.039194 81.6295126,54.039194 C74.8163052,54.039194 69.273985,48.6613035 69.273985,42.0468106 C69.273985,35.4290523 74.8163052,30.0511618 81.6295126,30.0511618 Z M120.734087,26.2571577 L132.049861,18.5026211 C133.418006,25.5383331 139.610114,30.8663118 147.038358,30.8663118 C155.472303,30.8663118 162.333556,24.0052914 162.333556,15.5748451 C163.263223,6.85775509 156.40197,0 147.968025,0 C139.857108,0 133.26967,6.36656601 132.778248,14.3550356 L119.804186,23.2470504 C119.04921,23.7613295 118.861224,24.7866226 119.375737,25.5383331 L120.734087,26.2571577 Z M147.96476,3.30024946 C154.582052,3.30024946 159.962741,8.67767357 159.962741,15.2914668 C159.962741,21.9050267 154.582052,27.285716 147.96476,27.285716 C141.353999,27.285716 135.976575,21.9050267 135.976575,15.2914668 C135.97984,8.67767357 141.353999,3.30024946 147.96476,3.30024946 Z M98.6921522,95.5640289 L110.65958,87.6042469 C111.437646,87.0899679 111.631462,86.0644415 111.101323,85.3159962 C110.571184,84.5673176 109.514405,84.3730346 108.743336,84.8873136 L97.081677,92.6427832 C95.6713162,85.6061382 89.2867911,80.2711627 81.6276469,80.2711627 C73.9757327,80.2711627 67.5909744,85.602873 66.1806136,92.6427832 L54.5189546,84.8873136 C53.7408888,84.3695359 52.6876077,84.5607873 52.1574688,85.3159962 C51.6275629,86.0677067 51.824645,87.0932331 52.5992124,87.6042469 L65.9735025,96.4974281 C66.4796184,104.486597 73.2690363,110.850598 81.6276469,110.850598 C89.2867911,110.850598 95.6713162,105.522152 97.081677,98.4887729 L108.746601,106.240977 C109.287003,106.240977 109.817141,105.990252 110.1467,105.522152 C110.676606,104.770209 110.483022,103.744916 109.704956,103.233669 L97.7340304,95.2738868 L98.6921522,95.5640289 Z M81.6276469,107.549882 C74.8149057,107.549882 69.272819,102.171991 69.272819,95.5607634 C69.272819,88.9430054 74.8149057,83.5618497 81.6276469,83.5618497 C88.4438863,83.5618497 93.9894716,88.9430054 93.9894716,95.5607634 C93.9894716,102.175257 88.4438863,107.549882 81.6276469,107.549882 Z"></path>
                    </g>
                </g>
                <path d="M379.071548,81.4014105 C404.201257,81.4014105 433.132202,100.196273 433.132202,137.996607 C433.132202,177.275173 404.201257,195.225031 379.071315,195.225031 C362.177303,195.225031 352.252066,185.933022 350.773834,182.132021 L350.773834,233.236442 L317.408195,233.236442 L317.408195,83.3022609 L350.773834,83.3022609 L350.773834,93.4385748 C352.252066,91.1155725 362.177303,81.4014105 379.071315,81.4014105 L379.071548,81.4014105 Z M374.21447,165.871703 C388.574168,165.871703 400.822408,156.157542 400.822408,137.996607 C400.822408,120.469134 388.574168,110.754972 374.21447,110.754972 C360.487997,110.754972 349.295835,120.257825 349.295835,137.996607 C349.295835,156.368851 360.487997,165.871703 374.21447,165.871703 Z M521.825647,81.6127199 C524.782111,81.6127199 527.738574,81.6127199 530.483962,82.2464145 L530.483962,114.133821 C527.949884,113.500127 524.993419,113.500127 522.881492,113.500127 C502.608865,113.500127 486.348314,128.071369 484.659008,148.343997 L484.659008,193.113105 L451.293135,193.113105 L451.293135,83.3022609 L484.659008,83.3022609 L484.659008,110.121511 C489.727163,93.649651 502.397557,81.6127199 521.825647,81.6127199 L521.825647,81.6127199 Z M626.568335,83.3022609 L659.934205,83.3022609 L659.934205,193.113105 L626.568568,193.113105 L626.568568,182.132021 C625.090336,185.933255 615.165097,195.225031 598.271085,195.225031 C573.141143,195.225031 544.210201,177.275173 544.210201,137.996607 C544.210201,100.196273 573.141143,81.401644 598.271085,81.401644 C615.165097,81.401644 625.090336,91.1158057 626.568568,93.4385748 L626.568568,83.3022609 L626.568335,83.3022609 Z M603.128166,165.871703 C616.854406,165.871703 628.046798,156.368851 628.046798,137.996607 C628.046798,120.257825 616.854406,110.754972 603.128166,110.754972 C588.767999,110.754972 576.519992,120.469134 576.519992,137.996607 C576.519992,156.157542 588.768232,165.871703 603.128166,165.871703 L603.128166,165.871703 Z M760.453273,83.3022609 L793.819145,83.3022609 L793.819145,193.113105 C793.819145,226.478744 760.031122,236.615291 735.534874,236.615291 C723.920095,236.615291 713.361397,234.714674 706.603932,231.124748 L706.603932,203.883114 C713.361397,207.473039 723.497944,208.951271 735.534874,208.951271 C755.17404,208.951271 760.453506,198.814957 760.453506,193.113105 L760.453506,182.132021 C758.975274,185.933255 749.050037,195.225031 732.156025,195.225031 C707.026317,195.225031 678.095141,177.275173 678.095141,137.996607 C678.095141,100.196273 707.026317,81.401644 732.156025,81.401644 C749.050037,81.401644 758.975274,91.1158057 760.453506,93.4385748 L760.453506,83.3022609 L760.453273,83.3022609 Z M737.013107,165.871703 C750.739346,165.871703 761.931739,156.368851 761.931739,137.996607 C761.931739,120.257825 750.739346,110.754972 737.013107,110.754972 C722.652939,110.754972 710.404932,120.469134 710.404932,137.996607 C710.404932,156.157542 722.653173,165.871703 737.013107,165.871703 L737.013107,165.871703 Z M885.891439,81.6127199 C888.847904,81.6127199 891.804369,81.6127199 894.549523,82.2464145 L894.549523,114.133821 C892.015443,113.500127 889.059214,113.500127 886.947287,113.500127 C866.67466,113.500127 850.41411,128.071369 848.724567,148.343997 L848.724567,193.113105 L815.358928,193.113105 L815.358928,83.3022609 L848.724567,83.3022609 L848.724567,110.121511 C853.792725,93.649651 866.46335,81.6127199 885.891439,81.6127199 Z M990.634128,83.3022609 L1024,83.3022609 L1024,193.113105 L990.634361,193.113105 L990.634361,182.132021 C989.156129,185.933255 979.230892,195.225031 962.33688,195.225031 C937.206938,195.225031 908.275993,177.275173 908.275993,137.996607 C908.275993,100.196273 937.206938,81.401644 962.33688,81.401644 C979.230892,81.401644 989.156129,91.1158057 990.634361,93.4385748 L990.634361,83.3022609 L990.634128,83.3022609 Z M967.193725,165.871703 C980.920198,165.871703 992.11236,156.368851 992.11236,137.996607 C992.11236,120.257825 980.920198,110.754972 967.193725,110.754972 C952.834028,110.754972 940.585787,120.469134 940.585787,137.996607 C940.585787,156.157542 952.834028,165.871703 967.193725,165.871703 L967.193725,165.871703 Z" id="Shape" fill="#424242"></path>
            </g>
        </g>
    </g>
</svg>